<?xml version="1.0" standalone="no"?>
<!DOCTYPE svg PUBLIC "-//W3C//DTD SVG 20010904//EN"
 "http://www.w3.org/TR/2001/REC-SVG-20010904/DTD/svg10.dtd">
<svg version="1.0" xmlns="http://www.w3.org/2000/svg"
 width="146.000000pt" height="146.000000pt" viewBox="0 0 146.000000 146.000000"
 preserveAspectRatio="xMidYMid meet">
<metadata>
Created by potrace 1.14, written by Peter Selinger 2001-2017
</metadata>
<g transform="translate(0.000000,146.000000) scale(0.100000,-0.100000)"
fill="#000000" stroke="none">
<path d="M802 1187 c-19 -6 -55 -29 -80 -52 l-47 -42 -40 18 c-68 31 -160 21
-216 -23 -28 -23 -49 -76 -49 -126 0 -71 46 -157 120 -226 62 -56 175 -118
217 -118 30 -1 121 70 160 124 61 85 83 197 57 296 -23 87 -34 85 -45 -10 -7
-56 -11 -65 -53 -105 -31 -29 -46 -51 -46 -68 0 -14 2 -25 4 -25 2 0 24 12 50
26 51 29 52 28 32 -21 -20 -47 -71 -109 -115 -139 -33 -23 -40 -24 -73 -14
-50 15 -147 90 -180 139 -70 104 -35 196 79 206 40 4 54 0 87 -22 21 -14 39
-25 40 -23 2 2 9 19 17 38 36 91 147 154 229 130 42 -12 40 -12 40 -1 0 16
-85 51 -121 50 -19 -1 -49 -6 -67 -12z"/>
<path d="M947 1059 c23 -79 14 -199 -20 -274 -41 -89 -164 -205 -216 -205 -30
0 -119 37 -168 70 -34 23 -41 25 -33 11 18 -35 93 -86 159 -108 l65 -21 39 21
c74 41 154 124 192 199 19 39 35 84 35 99 0 34 8 35 57 9 68 -36 73 5 8 66
-28 27 -53 63 -66 96 -36 92 -76 121 -52 37z"/>
<path d="M1073 512 c-6 -4 -15 -29 -19 -57 l-8 -50 -11 50 c-7 30 -17 51 -26
53 -13 2 -13 -7 1 -80 12 -58 22 -84 33 -86 15 -3 22 18 43 141 7 39 6 41 -13
29z"/>
<path d="M1317 507 c-33 -26 -30 -55 9 -91 26 -24 33 -36 24 -41 -8 -5 -18 -1
-25 8 -13 18 -35 23 -35 8 0 -5 8 -19 18 -31 25 -31 69 -21 78 17 6 21 2 30
-17 45 -42 32 -49 39 -49 48 0 18 28 10 43 -12 19 -29 34 -16 21 19 -11 31
-46 47 -67 30z"/>
<path d="M90 441 c0 -50 4 -74 16 -85 20 -20 48 -20 64 -1 15 18 21 127 9 147
-14 23 -23 -2 -24 -65 0 -51 -3 -62 -17 -65 -16 -3 -18 5 -18 67 0 56 -3 71
-15 71 -12 0 -15 -14 -15 -69z"/>
<path d="M205 429 c0 -57 4 -84 13 -87 7 -2 12 6 13 20 2 46 4 51 22 54 14 2
17 -5 17 -37 0 -28 4 -39 15 -39 12 0 15 16 15 85 0 69 -3 85 -15 85 -10 0
-15 -11 -15 -35 0 -19 -3 -35 -7 -35 -20 1 -34 20 -31 41 2 15 -2 25 -12 27
-13 2 -16 -11 -15 -79z"/>
<path d="M320 437 c0 -77 9 -97 45 -97 36 0 45 20 45 97 0 54 -3 73 -13 73
-10 0 -14 -17 -14 -65 1 -68 -4 -81 -25 -72 -10 3 -13 23 -12 71 2 51 -1 66
-12 66 -11 0 -14 -17 -14 -73z"/>
<path d="M431 430 c0 -44 5 -83 10 -86 14 -8 17 -4 21 34 2 18 7 32 11 32 4 0
12 0 17 0 6 0 10 -16 10 -35 0 -24 5 -35 14 -35 12 0 15 15 14 73 -1 39 -5 78
-11 85 -5 6 -27 12 -48 12 l-38 0 0 -80z m67 33 c-2 -10 -10 -18 -18 -18 -8 0
-16 8 -18 18 -2 12 3 17 18 17 15 0 20 -5 18 -17z"/>
<path d="M549 498 c-7 -125 2 -158 45 -158 37 0 46 19 46 97 0 60 -3 73 -16
73 -12 0 -15 -11 -14 -52 3 -80 1 -88 -15 -88 -15 0 -20 39 -15 113 1 19 -3
27 -14 27 -9 0 -16 -6 -17 -12z"/>
<path d="M690 495 c0 -8 7 -15 15 -15 12 0 15 -14 15 -70 0 -56 3 -70 15 -70
12 0 15 14 15 70 0 56 3 70 15 70 8 0 15 7 15 15 0 11 -12 15 -45 15 -33 0
-45 -4 -45 -15z"/>
<path d="M795 428 c0 -65 3 -83 14 -83 9 0 15 12 17 33 1 19 5 37 8 40 11 11
25 -13 28 -46 1 -18 8 -32 15 -32 10 0 13 15 12 54 -1 29 1 57 4 63 3 5 -1 19
-9 31 -11 16 -26 22 -52 22 l-37 0 0 -82z m68 45 c7 -7 -11 -33 -23 -33 -4 0
-10 9 -13 20 -4 14 0 20 12 20 10 0 21 -3 24 -7z"/>
<path d="M921 429 c-7 -45 -10 -83 -8 -86 3 -2 15 2 27 9 18 10 24 10 27 1 3
-7 11 -13 19 -13 12 0 14 8 10 35 -3 19 -8 52 -11 73 -9 54 -12 62 -33 62 -16
0 -21 -13 -31 -81z m35 -37 c-11 -10 -15 4 -8 28 l7 25 3 -23 c2 -13 1 -26 -2
-30z"/>
<path d="M1108 488 c-2 -13 -1 -51 0 -85 l4 -63 39 0 c28 0 39 4 39 15 0 9 -9
15 -24 15 -14 0 -27 3 -29 8 -9 14 8 37 28 37 11 0 20 7 20 15 0 10 -8 14 -21
12 -15 -2 -23 4 -27 18 -4 17 0 20 24 20 19 0 29 5 29 15 0 11 -11 15 -39 15
-33 0 -40 -4 -43 -22z"/>
<path d="M1210 427 l0 -83 40 -2 c30 -2 40 1 40 13 0 9 -9 15 -25 15 -24 0
-25 2 -25 70 0 56 -3 70 -15 70 -12 0 -15 -16 -15 -83z"/>
<path d="M676 305 c-3 -9 -6 -26 -5 -38 1 -16 4 -12 10 12 10 34 6 55 -5 26z"/>
<path d="M986 305 c-3 -9 -6 -22 -5 -28 0 -7 5 -1 10 12 5 13 8 26 5 28 -2 2
-6 -3 -10 -12z"/>
<path d="M517 303 c-4 -3 -7 -20 -6 -37 l1 -31 8 35 c9 36 8 45 -3 33z"/>
<path d="M765 295 c-3 -8 -7 -22 -10 -30 -6 -21 1 -19 27 7 16 16 17 20 5 15
-9 -3 -17 -2 -17 3 0 5 8 11 18 13 16 4 16 5 -1 6 -10 0 -20 -6 -22 -14z"/>
<path d="M492 275 c0 -16 2 -22 5 -12 2 9 2 23 0 30 -3 6 -5 -1 -5 -18z"/>
<path d="M537 271 c-3 -11 1 -22 8 -25 17 -6 25 3 25 26 0 24 -26 23 -33 -1z"/>
<path d="M580 279 c0 -6 8 -8 18 -5 16 6 16 5 0 -8 -21 -15 -23 -27 -5 -23 30
6 37 47 7 47 -11 0 -20 -5 -20 -11z"/>
<path d="M630 281 c0 -5 6 -12 13 -14 10 -4 10 -6 0 -6 -7 -1 -13 -5 -13 -11
0 -5 7 -7 15 -4 8 4 15 15 15 25 0 10 -7 19 -15 19 -8 0 -15 -4 -15 -9z"/>
<path d="M696 274 c-7 -17 0 -34 14 -34 4 0 6 10 3 23 -4 18 -3 19 6 7 9 -13
11 -13 11 3 0 21 -26 23 -34 1z"/>
<path d="M806 267 c-7 -28 0 -34 9 -8 8 26 25 28 25 3 0 -10 7 -19 15 -19 9 0
14 6 11 14 -3 7 -1 13 4 13 6 0 10 4 10 9 0 5 -15 9 -34 9 -26 0 -35 -5 -40
-21z"/>
<path d="M892 268 c3 -22 28 -39 28 -18 0 6 -4 8 -10 5 -5 -3 -10 -1 -10 4 0
6 7 11 15 11 8 0 15 5 15 10 0 6 -9 10 -21 10 -15 0 -20 -5 -17 -22z"/>
</g>
</svg>
